<svg xmlns="http://www.w3.org/2000/svg" viewBox="0 0 24 24">
    <path d="M 10 2 C 8.897 2 8 2.897 8 4 L 8 6 L 3 6 L 3 19 C 3 20.103 3.897 21 5 21 L 19 21 C 20.103 21 21 20.103 21 19 L 21 6 L 16 6 L 16 4 C 16 2.897 15.103 2 14 2 L 10 2 z M 10 4 L 14 4 L 14 6 L 10 6 L 10 4 z M 5 8 L 19 8 L 19.001953 19 L 5 19 L 5 8 z M 9 10 C 8.448 10 8 10.448 8 11 C 8 11.552 8.448 12 9 12 C 9.552 12 10 11.552 10 11 C 10 10.448 9.552 10 9 10 z M 15 10 C 14.448 10 14 10.448 14 11 C 14 11.552 14.448 12 15 12 C 15.552 12 16 11.552 16 11 C 16 10.448 15.552 10 15 10 z"></path>
</svg>